<svg width="720" height="720" xmlns="http://www.w3.org/2000/svg" xmlns:xlink="http://www.w3.org/1999/xlink" overflow="hidden"><defs><clipPath id="clip0"><rect x="0" y="0" width="720" height="720"/></clipPath></defs><g clip-path="url(#clip0)"><rect x="0" y="0" width="720" height="720" fill="#000714"/><path d="M537.5 314.5C537.5 437.66 437.66 537.5 314.5 537.5" stroke="#C39BD3" stroke-width="133.333" stroke-linecap="round" stroke-linejoin="round" stroke-miterlimit="10" stroke-opacity="0.25098" fill="none" fill-rule="evenodd"/><path d="M183.5 406.5C183.5 283.341 283.341 183.5 406.5 183.5" stroke="#F7DC6F" stroke-width="133.333" stroke-linecap="round" stroke-linejoin="round" stroke-miterlimit="10" stroke-opacity="0.25098" fill="none" fill-rule="evenodd"/><path d="M341.5 183C341.5 146.825 370.825 117.5 407 117.5 443.175 117.5 472.5 146.825 472.5 183 472.5 219.175 443.175 248.5 407 248.5 370.825 248.5 341.5 219.175 341.5 183Z" stroke="#000714" stroke-width="21.3333" stroke-miterlimit="8" fill="#F7DC6F" fill-rule="evenodd"/><path d="M248.5 538C248.5 501.825 277.825 472.5 314 472.5 350.175 472.5 379.5 501.825 379.5 538 379.5 574.175 350.175 603.5 314 603.5 277.825 603.5 248.5 574.175 248.5 538Z" stroke="#000714" stroke-width="21.3333" stroke-miterlimit="8" fill="#C39BD3" fill-rule="evenodd"/></g></svg>