<svg width="1375" height="1375" xmlns="http://www.w3.org/2000/svg" xmlns:xlink="http://www.w3.org/1999/xlink" xml:space="preserve" overflow="hidden"><defs><clipPath id="clip0"><rect x="1513" y="550" width="1375" height="1375"/></clipPath></defs><g clip-path="url(#clip0)" transform="translate(-1513 -550)"><rect x="1513" y="550" width="1375" height="1375" fill="#000000" fill-opacity="0"/><path d="M2581.32 1102.71 2850 1372.29 2700.27 1372.29C2641.5 1594.13 2439.99 1757 2200.7 1757 1993.6 1757 1815.88 1636.25 1731.92 1459.34L2006.19 1459.34C2057.97 1505.67 2126.53 1533.75 2200.7 1533.75 2315.45 1533.75 2414.8 1467.76 2463.78 1372.29L2312.65 1372.29ZM2200.7 718C2406.4 718 2585.52 838.749 2668.08 1015.66L2395.21 1015.66C2343.43 969.326 2274.86 941.245 2200.7 941.245 2085.95 941.245 1986.6 1007.24 1937.62 1102.71L2087.35 1102.71 1818.68 1372.29 1550 1102.71 1701.13 1102.71C1759.9 880.87 1961.41 718 2200.7 718Z" stroke="#222A35" stroke-width="64.1667" stroke-linecap="round" stroke-linejoin="round" stroke-miterlimit="10" fill="#FFFFFF" fill-rule="evenodd"/></g></svg>